<svg width="4" height="16" viewBox="0 0 4 16" fill="none" xmlns="http://www.w3.org/2000/svg">
    <path d="M0.75 1.73047C0.75 2.06199 0.881696 2.37993 1.11612 2.61435C1.35054 2.84877 1.66848 2.98047 2 2.98047C2.33152 2.98047 2.64946 2.84877 2.88388 2.61435C3.1183 2.37993 3.25 2.06199 3.25 1.73047C3.25 1.39895 3.1183 1.08101 2.88388 0.846585C2.64946 0.612165 2.33152 0.480469 2 0.480469C1.66848 0.480469 1.35054 0.612165 1.11612 0.846585C0.881696 1.08101 0.75 1.39895 0.75 1.73047ZM0.75 7.98047C0.75 8.31199 0.881696 8.62993 1.11612 8.86435C1.35054 9.09877 1.66848 9.23047 2 9.23047C2.33152 9.23047 2.64946 9.09877 2.88388 8.86435C3.1183 8.62993 3.25 8.31199 3.25 7.98047C3.25 7.64895 3.1183 7.33101 2.88388 7.09659C2.64946 6.86217 2.33152 6.73047 2 6.73047C1.66848 6.73047 1.35054 6.86217 1.11612 7.09659C0.881696 7.33101 0.75 7.64895 0.75 7.98047ZM0.75 14.2305C0.75 14.562 0.881696 14.8799 1.11612 15.1144C1.35054 15.3488 1.66848 15.4805 2 15.4805C2.33152 15.4805 2.64946 15.3488 2.88388 15.1144C3.1183 14.8799 3.25 14.562 3.25 14.2305C3.25 13.8989 3.1183 13.581 2.88388 13.3466C2.64946 13.1122 2.33152 12.9805 2 12.9805C1.66848 12.9805 1.35054 13.1122 1.11612 13.3466C0.881696 13.581 0.75 13.8989 0.75 14.2305Z" fill="black" fill-opacity="0.85"/>
</svg>
