<svg width="12" height="12" viewBox="0 0 12 12" fill="none" xmlns="http://www.w3.org/2000/svg">
<path d="M6.46838 0.375H5.53088C5.44755 0.375 5.40588 0.416667 5.40588 0.5V5.40625H0.75C0.666667 5.40625 0.625 5.44792 0.625 5.53125V6.46875C0.625 6.55208 0.666667 6.59375 0.75 6.59375H5.40588V11.5C5.40588 11.5833 5.44755 11.625 5.53088 11.625H6.46838C6.55172 11.625 6.59338 11.5833 6.59338 11.5V6.59375H11.25C11.3333 6.59375 11.375 6.55208 11.375 6.46875V5.53125C11.375 5.44792 11.3333 5.40625 11.25 5.40625H6.59338V0.5C6.59338 0.416667 6.55172 0.375 6.46838 0.375Z" fill="#1890FF"/>
</svg>
