<svg width="46" height="47" viewBox="0 0 46 47" fill="none" xmlns="http://www.w3.org/2000/svg">
<path d="M23 0.75C10.4367 0.75 0.25 10.9367 0.25 23.5C0.25 36.0633 10.4367 46.25 23 46.25C35.5633 46.25 45.75 36.0633 45.75 23.5C45.75 10.9367 35.5633 0.75 23 0.75ZM23 42.3906C12.5695 42.3906 4.10938 33.9305 4.10938 23.5C4.10938 13.0695 12.5695 4.60938 23 4.60938C33.4305 4.60938 41.8906 13.0695 41.8906 23.5C41.8906 33.9305 33.4305 42.3906 23 42.3906Z" fill="#1890FF"/>
<path d="M32.3438 21.875H24.625V14.1562C24.625 13.9328 24.4422 13.75 24.2188 13.75H21.7812C21.5578 13.75 21.375 13.9328 21.375 14.1562V21.875H13.6562C13.4328 21.875 13.25 22.0578 13.25 22.2812V24.7188C13.25 24.9422 13.4328 25.125 13.6562 25.125H21.375V32.8438C21.375 33.0672 21.5578 33.25 21.7812 33.25H24.2188C24.4422 33.25 24.625 33.0672 24.625 32.8438V25.125H32.3438C32.5672 25.125 32.75 24.9422 32.75 24.7188V22.2812C32.75 22.0578 32.5672 21.875 32.3438 21.875Z" fill="#1890FF"/>
</svg>
