<svg width="98" height="60" viewBox="0 0 98 60" fill="none" xmlns="http://www.w3.org/2000/svg">
<path opacity="0.8" fill-rule="evenodd" clip-rule="evenodd" d="M19.9144 11.1486C20.914 8.00458 21.8443 6.04708 22.7036 5.27533C25.0835 3.13933 28.3741 4.30183 29.0736 4.46833C31.5312 5.05483 30.7321 1.19533 32.8406 0.410829C34.2458 -0.111921 35.4014 0.527079 36.3083 2.32783C37.1112 0.647829 38.3346 -0.121671 39.9788 0.0155795C42.4454 0.223329 43.3085 8.51158 46.6978 6.69733C50.0879 4.88233 54.2438 4.46758 56.0191 7.16458C56.4028 7.74808 56.5498 6.84283 59.1596 3.75208C61.7695 0.660579 64.3717 -0.701421 69.7105 1.09858C72.1379 1.91608 74.134 4.13233 75.7013 7.74658C75.7013 12.9051 79.5158 15.9591 87.1432 16.9063C98.5858 18.3276 89.704 30.5668 75.7013 34.1511C61.6978 37.7361 29.4581 39.6711 11.9628 30.6141C0.29934 24.5773 2.94986 18.0883 19.9137 11.1486H19.9144Z" fill="url(#paint0_linear)"/>
<path d="M48.6057 56.7326C60.2577 56.7326 69.7036 54.5574 69.7036 51.8741C69.7036 49.1908 60.2577 47.0156 48.6057 47.0156C36.9537 47.0156 27.5078 49.1908 27.5078 51.8741C27.5078 54.5574 36.9537 56.7326 48.6057 56.7326Z" fill="url(#paint1_linear)"/>
<path opacity="0.675" fill-rule="evenodd" clip-rule="evenodd" d="M84.2249 57.9376C68.3617 61.8961 14.2152 57.3683 8.45201 55.3006C5.64695 54.2933 3.11855 52.3996 0.867565 49.6186C0.61563 49.3076 0.457272 48.9321 0.410793 48.5354C0.364313 48.1387 0.431607 47.737 0.6049 47.3767C0.778193 47.0164 1.05041 46.7123 1.3901 46.4994C1.72978 46.2866 2.12307 46.1737 2.52452 46.1738H97.1428C99.1065 51.3773 94.8006 55.2983 84.2249 57.9376Z" fill="url(#paint2_linear)"/>
<path d="M64.795 38.8535L57.5799 30.4595C57.4093 30.2592 57.1972 30.0979 56.9582 29.9866C56.7193 29.8753 56.459 29.8166 56.1951 29.8145H40.6809C40.1487 29.8145 39.6429 30.0575 39.2961 30.4595L32.0811 38.8535V43.4615H64.795V38.8535Z" fill="url(#paint3_linear)"/>
<path d="M62.75 43.6302L56.4351 36.3192C56.2824 36.1466 56.0942 36.0087 55.8832 35.9148C55.6722 35.821 55.4434 35.7735 55.2123 35.7754H41.6627C41.1976 35.7754 40.743 35.9674 40.44 36.3192L34.125 43.6302V47.6457H62.75V43.6302Z" fill="url(#paint4_linear)"/>
<path d="M64.795 48.7428C64.795 49.3825 64.5055 49.9578 64.0486 50.3433L63.9559 50.4183C63.5937 50.6914 63.1515 50.839 62.697 50.8383H34.1798C33.9219 50.8383 33.6754 50.7918 33.4478 50.7063L33.3347 50.6613C32.9616 50.4962 32.6447 50.227 32.4222 49.8864C32.1997 49.5458 32.0812 49.1483 32.0811 48.742V38.9043H40.0183C40.895 38.9043 41.6014 39.622 41.6014 40.4928V40.504C41.6014 41.3755 42.316 42.0783 43.1927 42.0783H53.6833C54.1047 42.0779 54.5088 41.9114 54.807 41.6152C55.1053 41.319 55.2734 40.9173 55.2746 40.498C55.2746 39.6235 55.9817 38.9043 56.8577 38.9043H64.7957L64.795 48.7428Z" fill="url(#paint5_linear)"/>
<defs>
<linearGradient id="paint0_linear" x1="50.6644" y1="27.7125" x2="50.6644" y2="-6.55011" gradientUnits="userSpaceOnUse">
<stop stop-color="#DEDEDE" stop-opacity="0"/>
<stop offset="1" stop-color="#A9A9A9" stop-opacity="0.3"/>
</linearGradient>
<linearGradient id="paint1_linear" x1="46.4073" y1="56.7326" x2="46.4073" y2="47.0156" gradientUnits="userSpaceOnUse">
<stop stop-color="white" stop-opacity="0"/>
<stop offset="1" stop-color="#96A1C5" stop-opacity="0.373"/>
</linearGradient>
<linearGradient id="paint2_linear" x1="49.0003" y1="59.5076" x2="49.0003" y2="43.5504" gradientUnits="userSpaceOnUse">
<stop stop-color="white" stop-opacity="0"/>
<stop offset="1" stop-color="#919191" stop-opacity="0.15"/>
</linearGradient>
<linearGradient id="paint3_linear" x1="48.438" y1="29.8145" x2="48.438" y2="35.9488" gradientUnits="userSpaceOnUse">
<stop stop-color="#5389F5"/>
<stop offset="1" stop-color="#416FDC"/>
</linearGradient>
<linearGradient id="paint4_linear" x1="52.2575" y1="47.6457" x2="52.2575" y2="35.1444" gradientUnits="userSpaceOnUse">
<stop stop-color="#DCE9FF"/>
<stop offset="1" stop-color="#B6CFFF"/>
</linearGradient>
<linearGradient id="paint5_linear" x1="48.4384" y1="38.9043" x2="48.4384" y2="50.8383" gradientUnits="userSpaceOnUse">
<stop stop-color="#7CA5F7"/>
<stop offset="1" stop-color="#C4D6FC"/>
</linearGradient>
</defs>
</svg>
