<svg width="166" height="34" viewBox="0 0 166 34" fill="none" xmlns="http://www.w3.org/2000/svg">
    <path
        d="M60.4974 8.39296L58.1466 9.78603C57.7071 9.02316 57.2883 8.52564 56.8903 8.29346C56.4757 8.02811 55.9409 7.89544 55.2858 7.89544C54.4815 7.89544 53.814 8.12347 53.2833 8.57953C52.7526 9.0273 52.4872 9.59116 52.4872 10.2711C52.4872 11.2081 53.1838 11.9627 54.5768 12.5348L56.4923 13.3184C58.0512 13.9486 59.1914 14.7198 59.9128 15.6319C60.6342 16.5357 60.9949 17.6469 60.9949 18.9653C60.9949 20.7315 60.4061 22.1909 59.2287 23.3435C58.0429 24.5044 56.5711 25.0848 54.8132 25.0848C53.1465 25.0848 51.77 24.5915 50.6837 23.6047C49.6141 22.618 48.9465 21.229 48.6812 19.438L51.6166 18.7912C51.7493 19.9189 51.9814 20.6983 52.3131 21.1295C52.9101 21.9587 53.7808 22.3733 54.9251 22.3733C55.8289 22.3733 56.5794 22.0707 57.1764 21.4654C57.7734 20.86 58.0719 20.093 58.0719 19.1643C58.0719 18.7912 58.018 18.4512 57.9102 18.1444C57.8107 17.8293 57.649 17.5432 57.4252 17.2862C57.2096 17.0208 56.9276 16.7762 56.5794 16.5523C56.2311 16.3202 55.8165 16.1004 55.3356 15.8931L53.4823 15.122C50.8537 14.0108 49.5394 12.3856 49.5394 10.2462C49.5394 8.80342 50.0908 7.59693 51.1937 6.62676C52.2965 5.6483 53.6689 5.15907 55.3107 5.15907C57.5247 5.15907 59.2536 6.23703 60.4974 8.39296ZM67.2885 15.2339V24.7366H64.49V15.2339H63.2959V12.6219H64.49V8.18152H67.2885V12.6219H69.4652V15.2339H67.2885ZM74.1668 12.6219V19.5748C74.1668 21.5815 74.9587 22.5848 76.5425 22.5848C78.1262 22.5848 78.9181 21.5815 78.9181 19.5748V12.6219H81.7167V19.637C81.7167 20.6071 81.5965 21.4446 81.356 22.1495C81.1238 22.7797 80.7216 23.3477 80.1495 23.8535C79.2042 24.6744 78.0019 25.0848 76.5425 25.0848C75.0913 25.0848 73.8931 24.6744 72.9479 23.8535C72.3674 23.3477 71.957 22.7797 71.7165 22.1495C71.4843 21.5856 71.3682 20.7481 71.3682 19.637V12.6219H74.1668ZM94.1796 3.72869H96.9906V24.7366H94.1796V23.4679C93.0768 24.5459 91.8288 25.0848 90.4358 25.0848C88.7774 25.0848 87.4009 24.4795 86.3063 23.2689C85.2201 22.0334 84.6769 20.491 84.6769 18.6419C84.6769 16.8343 85.2201 15.3251 86.3063 14.1145C87.3843 12.8955 88.74 12.2861 90.3736 12.2861C91.7915 12.2861 93.0602 12.8665 94.1796 14.0274V3.72869ZM87.5377 18.6419C87.5377 19.8028 87.8486 20.7481 88.4706 21.4778C89.109 22.2158 89.9134 22.5848 90.8835 22.5848C91.92 22.5848 92.7575 22.2282 93.396 21.5151C94.0345 20.7771 94.3538 19.8401 94.3538 18.7041C94.3538 17.5681 94.0345 16.6311 93.396 15.8931C92.7575 15.1717 91.9283 14.811 90.9084 14.811C89.9465 14.811 89.1422 15.1759 88.4954 15.9056C87.8569 16.6435 87.5377 17.5557 87.5377 18.6419ZM104.342 22.4853L98.8936 12.6219H102.14L105.847 19.5872L109.304 12.6219H112.464L102.812 31.3287H99.6151L104.342 22.4853ZM117.178 3.72869V14.0274C118.297 12.8665 119.566 12.2861 120.984 12.2861C122.617 12.2861 123.977 12.8955 125.063 14.1145C126.15 15.3251 126.693 16.8343 126.693 18.6419C126.693 20.5076 126.145 22.05 125.051 23.2689C123.965 24.4795 122.592 25.0848 120.934 25.0848C119.533 25.0848 118.28 24.5459 117.178 23.4679V24.7366H114.379V3.72869H117.178ZM123.832 18.7663C123.832 17.6054 123.517 16.6601 122.887 15.9304C122.248 15.1841 121.448 14.811 120.486 14.811C119.458 14.811 118.62 15.1717 117.974 15.8931C117.335 16.6062 117.016 17.5349 117.016 18.6792C117.016 19.8567 117.331 20.7979 117.961 21.5027C118.591 22.2241 119.421 22.5848 120.449 22.5848C121.419 22.5848 122.223 22.2241 122.862 21.5027C123.509 20.773 123.832 19.8609 123.832 18.7663ZM132.452 12.6219V24.7366H129.653V12.6219H132.452ZM129.23 7.58449C129.23 7.09526 129.408 6.67236 129.765 6.31581C130.121 5.95925 130.549 5.78097 131.046 5.78097C131.552 5.78097 131.983 5.95925 132.34 6.31581C132.696 6.66407 132.874 7.09111 132.874 7.59693C132.874 8.10274 132.696 8.53393 132.34 8.89049C131.991 9.24704 131.564 9.42532 131.058 9.42532C130.553 9.42532 130.121 9.24704 129.765 8.89049C129.408 8.53393 129.23 8.0986 129.23 7.58449ZM138.882 15.2339V24.7366H136.083V15.2339H134.889V12.6219H136.083V8.18152H138.882V12.6219H141.059V15.2339H138.882ZM154.218 19.3385H145.536C145.611 20.3335 145.934 21.1254 146.507 21.7141C147.079 22.2946 147.813 22.5848 148.708 22.5848C149.405 22.5848 149.981 22.4189 150.437 22.0873C150.885 21.7556 151.395 21.142 151.967 20.2464L154.33 21.5649C153.965 22.1868 153.58 22.7216 153.173 23.1694C152.767 23.6089 152.332 23.9737 151.867 24.2639C151.403 24.5459 150.901 24.7532 150.362 24.8858C149.823 25.0185 149.239 25.0848 148.609 25.0848C146.801 25.0848 145.35 24.5044 144.255 23.3435C143.161 22.1743 142.613 20.6237 142.613 18.6917C142.613 16.7762 143.144 15.2256 144.205 14.0398C145.275 12.8707 146.693 12.2861 148.459 12.2861C150.242 12.2861 151.652 12.8541 152.688 13.9901C153.716 15.1178 154.231 16.6809 154.231 18.6792L154.218 19.3385ZM151.345 17.0499C150.955 15.5573 150.014 14.811 148.521 14.811C148.182 14.811 147.862 14.8649 147.564 14.9727C147.265 15.0722 146.992 15.2215 146.743 15.4205C146.502 15.6112 146.295 15.8434 146.121 16.117C145.947 16.3906 145.814 16.7016 145.723 17.0499H151.345ZM164.33 14.6866L162.017 15.918C161.652 15.1717 161.2 14.7986 160.661 14.7986C160.404 14.7986 160.184 14.8856 160.002 15.0598C159.819 15.2256 159.728 15.4412 159.728 15.7065C159.728 16.1709 160.267 16.6311 161.345 17.0872C162.829 17.7257 163.829 18.3144 164.343 18.8534C164.857 19.3924 165.114 20.1179 165.114 21.03C165.114 22.1992 164.683 23.1777 163.82 23.9654C162.983 24.7117 161.971 25.0848 160.785 25.0848C158.754 25.0848 157.315 24.0939 156.469 22.1121L158.858 21.0052C159.189 21.5856 159.442 21.9546 159.616 22.1121C159.956 22.4272 160.363 22.5848 160.835 22.5848C161.78 22.5848 162.253 22.1536 162.253 21.2912C162.253 20.7937 161.888 20.3294 161.159 19.8982C160.877 19.7572 160.595 19.6204 160.313 19.4877C160.031 19.355 159.745 19.2182 159.455 19.0773C158.642 18.6792 158.07 18.2812 157.738 17.8832C157.315 17.3774 157.104 16.7265 157.104 15.9304C157.104 14.8773 157.464 14.0067 158.186 13.3184C158.924 12.6302 159.819 12.2861 160.872 12.2861C162.423 12.2861 163.576 13.0863 164.33 14.6866Z"
        fill="black" fill-opacity="0.8" />
    <path
        d="M32.9889 5.37175V16.1195L23.6839 21.4913L17.9601 18.1849H17.9558L14.3789 16.1195V5.37175L23.6839 0L32.9889 5.37175Z"
        fill="url(#paint0_linear)" />
    <path
        d="M36.1208 23.0501V29.7616L30.3111 33.1152L25.781 30.5001H25.7767L24.4971 29.7616V23.0501L30.3111 19.6965L36.1208 23.0501Z"
        fill="url(#paint1_linear)" />
    <path
        d="M21.9078 22.0322V25.5962L10.9539 31.9186L4.12221 27.9729C4.11792 27.9729 4.11791 27.9686 4.11361 27.9686L0 25.5941V12.9462L10.9539 6.62549L13.0236 7.81878V16.9009L13.6977 17.2917C13.702 17.2917 13.7063 17.296 13.7106 17.2998L21.9078 22.0322Z"
        fill="url(#paint2_linear)" />
    <g style="mix-blend-mode:screen" opacity="0.4">
        <g style="mix-blend-mode:screen" opacity="0.4">
            <path d="M31.7007 6.1145L15.667 15.3723V6.1145L23.6838 1.4856L31.7007 6.1145Z" fill="white" />
        </g>
    </g>
    <g style="mix-blend-mode:screen" opacity="0.2">
        <g style="mix-blend-mode:screen" opacity="0.2">
            <path d="M34.781 23.7628L25.7852 28.9559V23.7929L30.311 21.1821L34.781 23.7628Z" fill="white" />
        </g>
    </g>
    <g style="mix-blend-mode:screen" opacity="0.2">
        <g style="mix-blend-mode:screen" opacity="0.2">
            <path d="M11.7336 8.56219V13.6892L1.28809 19.7239V13.6935L10.9538 8.11133L11.7336 8.56219Z" fill="white" />
        </g>
    </g>
    <g style="mix-blend-mode:multiply" opacity="0.3">
        <g style="mix-blend-mode:multiply" opacity="0.3">
            <path
                d="M21.9077 22.0321V25.5961L10.9538 31.9186L4.12207 27.9728C5.3072 28.5392 6.48375 29.1365 7.6517 29.7376L9.40364 30.6523C9.91892 30.9228 10.4299 31.1976 10.9409 31.4767C10.9452 31.472 10.9495 31.472 10.9538 31.4677C11.7868 30.9524 12.6198 30.4371 13.4614 29.9395C14.3632 29.398 15.2692 28.8531 16.1795 28.3245C17.0898 27.7959 17.9959 27.2557 18.9105 26.7319L21.4181 25.3063L21.4697 22.2662L19.6705 21.1583L17.6652 19.8955C16.3384 19.05 15.0116 18.1955 13.7105 17.2976L21.9077 22.0321Z"
                fill="black" />
        </g>
    </g>
    <g style="mix-blend-mode:multiply" opacity="0.3">
        <g style="mix-blend-mode:multiply" opacity="0.3">
            <path
                d="M32.9888 7.80176V16.117L23.6838 21.4888L17.96 18.1824C18.9733 18.629 19.9567 19.1224 20.9486 19.6123L22.4214 20.3637L23.6666 21.0164C24.3623 20.5784 25.0665 20.1576 25.7707 19.7282C26.5307 19.2602 27.3122 18.8175 28.0808 18.3628C28.8495 17.908 29.631 17.4653 30.4125 17.023C31.1124 16.619 31.8252 16.2282 32.538 15.8422C32.5508 15.2411 32.568 14.6352 32.5938 14.0344C32.6153 13.3427 32.6453 12.6514 32.684 11.9562C32.7544 10.5718 32.8489 9.18484 32.9888 7.80176Z"
                fill="black" />
        </g>
    </g>
    <g style="mix-blend-mode:multiply" opacity="0.3">
        <g style="mix-blend-mode:multiply" opacity="0.3">
            <path
                d="M36.1211 23.6167V29.7614L30.3114 33.1149L25.7812 30.4999C26.6014 30.822 27.3915 31.1913 28.1816 31.5648C28.5766 31.7576 28.9717 31.9427 29.3624 32.1445L30.2899 32.6168L31.518 31.853L32.9608 30.9985C33.4417 30.7065 33.9312 30.4402 34.4164 30.1654C34.8286 29.9293 35.2451 29.7003 35.666 29.4784C35.6788 29.0619 35.6874 28.6449 35.7175 28.2246C35.7432 27.7131 35.7647 27.2026 35.8077 26.6873C35.8764 25.6649 35.9751 24.6387 36.1211 23.6167Z"
                fill="black" />
        </g>
    </g>
    <g style="mix-blend-mode:multiply" opacity="0.3">
        <g style="mix-blend-mode:multiply" opacity="0.3">
            <path
                d="M30.3111 19.6965C29.886 20.0787 29.4394 20.4222 28.9886 20.7614C28.5377 21.1007 28.0782 21.4227 27.6145 21.7319C27.3826 21.895 27.1422 22.0406 26.9103 22.1913C26.6784 22.342 26.4379 22.5005 26.1975 22.6422C25.8024 22.8822 25.4031 23.1184 25.0038 23.3464C24.9952 23.741 24.9909 24.1322 24.9694 24.5272C24.9522 25.0168 24.9265 25.5101 24.8835 25.9996C24.8664 26.2491 24.8449 26.4939 24.8191 26.7386C24.7934 26.9834 24.7719 27.232 24.7375 27.4772C24.6688 27.971 24.6044 28.4605 24.4971 28.9543V23.0501L30.3111 19.6965Z"
                fill="black" />
        </g>
    </g>
    <g style="mix-blend-mode:multiply" opacity="0.3">
        <g style="mix-blend-mode:multiply" opacity="0.3">
            <path
                d="M10.9539 6.62744C10.0994 7.25865 9.22343 7.84693 8.34746 8.4352C7.4672 9.01488 6.57835 9.58985 5.68521 10.1485C5.23864 10.4315 4.78777 10.702 4.3369 10.9772L2.9843 11.7969C2.15985 12.2779 1.33971 12.7721 0.506683 13.244C0.498095 14.0946 0.502389 14.9444 0.476626 15.7951L0.442278 17.2159L0.386454 18.6377C0.369278 19.1143 0.352105 19.5866 0.322047 20.0585L0.240461 21.4803C0.176052 22.4292 0.107349 23.3782 0 24.3272V12.9482L10.9539 6.62744Z"
                fill="black" />
        </g>
    </g>
    <g style="mix-blend-mode:multiply" opacity="0.3">
        <g style="mix-blend-mode:multiply" opacity="0.3">
            <path
                d="M23.6859 0C22.9731 0.553492 22.2345 1.0649 21.4917 1.57546C20.7488 2.08601 19.9974 2.57208 19.246 3.05301C18.8681 3.29776 18.4816 3.52534 18.1037 3.76151C17.7259 3.99768 17.3437 4.23814 16.9529 4.46143C16.2659 4.86463 15.5789 5.27728 14.8833 5.66803C14.8747 6.31213 14.8704 6.95622 14.8447 7.60032C14.8275 8.33845 14.7974 9.08173 14.7587 9.82459C14.7416 10.1939 14.7201 10.5674 14.69 10.9363C14.66 11.3051 14.6471 11.6796 14.6127 12.0527C14.5483 12.7909 14.4796 13.5341 14.3809 14.277V5.37175L23.6859 0Z"
                fill="black" />
        </g>
    </g>
    <defs>
        <linearGradient id="paint0_linear" x1="23.6839" y1="0.752195" x2="23.6839" y2="21.0615"
            gradientUnits="userSpaceOnUse">
            <stop stop-color="#098C8C" />
            <stop offset="0.238" stop-color="#098C8C" />
            <stop offset="0.44" stop-color="#098C8C" />
            <stop offset="0.629" stop-color="#098C8C" />
            <stop offset="0.81" stop-color="#098C8C" />
            <stop offset="0.983" stop-color="#009BBC" />
            <stop offset="1" stop-color="#0098BA" />
        </linearGradient>
        <linearGradient id="paint1_linear" x1="30.3089" y1="20.287" x2="30.3089" y2="31.572"
            gradientUnits="userSpaceOnUse">
            <stop stop-color="#3E6896" />
            <stop offset="0.247" stop-color="#355881" />
            <stop offset="0.75" stop-color="#1F324E" />
            <stop offset="1" stop-color="#131D32" />
        </linearGradient>
        <linearGradient id="paint2_linear" x1="6.15608" y1="9.81242" x2="14.5103" y2="28.0841"
            gradientUnits="userSpaceOnUse">
            <stop stop-color="#4957A0" />
            <stop offset="0.149" stop-color="#504A9B" />
            <stop offset="0.375" stop-color="#584E96" />
            <stop offset="0.65" stop-color="#63548E" />
            <stop offset="0.96" stop-color="#5D3283" />
            <stop offset="1" stop-color="#5F2C82" />
        </linearGradient>
    </defs>
</svg>